<svg xmlns="http://www.w3.org/2000/svg" width="100%" height="100%" fill="#ffff" viewBox="0 0 422.68 290"><defs></defs><g id="Слой_2" data-name="Слой 2"><g id="Слой_1-2" data-name="Слой 1"><path class="cls-1" d="M207.44,64V6a6,6,0,0,1,6.16-6,6.2,6.2,0,0,1,5.84,6.28V63.72A6.2,6.2,0,0,1,213.6,70,6,6,0,0,1,207.44,64ZM309.11,176.86c.16-2.26-.86-4-2.61-4.45a3.79,3.79,0,0,0-4.36,3.08c-.5,2.16-.9,5-1.31,7.95-.12.78-.23,1.57-.34,2.36-.35,2.35-.7,4.92-1.06,7.53-.23,1.7-.47,3.41-.69,5s-1,5.84,2.51,6.75l.27.06h0c2.19.41,5.3-.56,14.39-16.55a0,0,0,1,1,.05,0c-.61,3.38-1.23,6.72-1.88,9.26-.6,2.32.33,4.42,2.17,4.89.94.24,3.25.44,4.56-3,.2-.6,1.83-7.13,2.91-13.56,2-11.89.9-15-1.46-15.92-1.31-.48-3.87-.59-6.49,4.13-2.22,4.36-5.26,9.72-8.54,15.08,0,0-.06,0-.05,0,.74-4.56,1.66-10.38,1.92-12.57ZM243.37,67.42a6,6,0,0,0,9.21-1.33l17.86-29.77a6.18,6.18,0,0,0-1.78-8.38,6,6,0,0,0-8.37,2L242.4,59.74A6.12,6.12,0,0,0,243.37,67.42ZM220.14,172.93c.43,2.25.73,4.56,1,6.91a.78.78,0,0,0,1,.68c5.37-1.59,9.06-5.73,11.21-10.73,0,0,.05,0,.05,0a32.14,32.14,0,0,0-.48,6.62,12,12,0,0,0,3.51,8.28,7.44,7.44,0,0,0,3.13,1.69l.36.09c3,.67,6.71-.21,10.31-2.48a4.73,4.73,0,0,0,1.92-5.24l0-.08a3.28,3.28,0,0,0-2.15-2.14,3.72,3.72,0,0,0-3.29.62c-2.18,1.69-4.4,2.25-5.63,1.45a3.5,3.5,0,0,1-1.14-2.94c0-4.21.65-7.38,2.08-9.66a6.25,6.25,0,0,1,3.56-2.76,2,2,0,0,1,2.27.57c.54.63.75,2.15.6,4.46a4,4,0,0,0,1,3.12,3.37,3.37,0,0,0,2.69,1l.19,0a4.18,4.18,0,0,0,3.29-4c.29-4.27-.58-7.75-2.49-10.05A8,8,0,0,0,246,155.5l0,0a18.34,18.34,0,0,1-8.9,6.78l-1.19.3s0,0,0,0a17.44,17.44,0,0,0-.86,1.65c.11-.5.2-1,.28-1.52-2.35.57-5.07,1.14-7.57,1.89l0,0c-1.06,3.71-3.2,7.32-7.11,8.21A2.54,2.54,0,0,1,220.14,172.93Zm117.3-50.74-77.25-19.82a3.08,3.08,0,0,0-3.62,4.13,24.05,24.05,0,0,1,1,3,12.41,12.41,0,0,1,.47,3.23,3.6,3.6,0,0,0,2.75,3.44L329,133.63a1.6,1.6,0,0,1,1.19,1.54c.1,19.28,11,37.21,28.37,46.81a1.58,1.58,0,0,1,.79,1.78l-3.56,13.85a1.59,1.59,0,0,1-1.55,1.19,54,54,0,0,0-46,25,1.58,1.58,0,0,1-1.74.7L226.7,204.07a1.59,1.59,0,0,0-1.89,2.08,24.31,24.31,0,0,0,8.33,11.67l0,0,8,4.32,68.18,16.74a6.58,6.58,0,0,0,7.62-3.65c7.21-15.7,24.77-25.13,42.69-22.92a6.59,6.59,0,0,0,7.19-4.91l6.91-26.91a6.6,6.6,0,0,0-3.95-7.76c-17.48-7-28.15-24.11-26.25-41.93A8.11,8.11,0,0,0,337.44,122.19ZM288,168a3.45,3.45,0,0,0-3.47-3.39l-.25,0c-1.73.26-3,1.71-3.27,3.8a7.07,7.07,0,0,0-.07.82c-.68,11.17-2.39,17.45-3.69,20.76-.73,1.76-.29,4.24,1.54,5.14l.21.09.3.09a3.79,3.79,0,0,0,4.36-2.36,42.84,42.84,0,0,0,2.64-9h0c.29-.38.71-.9,1.25-1.5a0,0,0,0,1,.05,0,35.59,35.59,0,0,1,2.53,10.94,4.05,4.05,0,0,0,1.69,3.08,3,3,0,0,0,2.76.36c1.77-.64,2.63-2.71,2.69-4.49v-.12c-.06-2.31-.45-8.19-2.9-12.87a15,15,0,0,0-1.48-2.3v0c.64-.63,1.06-1.05,1.31-1.33,1.84-1.8,4.6-4.58,5.17-5.29h0a4.81,4.81,0,0,0,.88-4.88,3,3,0,0,0-2.22-1.69,3.38,3.38,0,0,0-2.89.82c-.85.72-3.74,3.53-7.19,7.18a0,0,0,0,1-.05,0A22.52,22.52,0,0,0,288,168Zm-23.77-2.68c.16-2.25-.86-4-2.61-4.45a3.79,3.79,0,0,0-4.36,3.08c-.51,2.16-.9,5-1.31,7.95-.12.78-.23,1.57-.34,2.36-.35,2.35-.7,4.93-1.06,7.53-.23,1.7-.47,3.42-.7,5s-1,5.84,2.52,6.75l.27.06h0c2.19.42,5.3-.56,14.39-16.55,0,0,.06,0,.05,0-.61,3.38-1.23,6.72-1.89,9.26-.59,2.32.34,4.42,2.18,4.9.94.24,3.25.43,4.55-3,.21-.6,1.83-7.13,2.92-13.56,2-11.89.9-15-1.46-15.92-1.31-.48-3.87-.58-6.49,4.14-2.22,4.36-5.27,9.71-8.54,15.08a0,0,0,0,1-.06,0c.75-4.56,1.67-10.38,1.93-12.57ZM136.85,170s0,0,0,0a27.92,27.92,0,0,0-.7-2.84l0-.11a3,3,0,0,0-2.16-1.45c-1.5-.19-2.76.82-3.39,2.75a4,4,0,0,1-2.44,2.54,3.1,3.1,0,0,1-2.7-.31l-.1-.08a4.86,4.86,0,0,1-1.63-5.07,10.16,10.16,0,0,1,11-7.47,9.73,9.73,0,0,1,8.24,6.93c.62,1.78,1.39,5.09,2.21,8.61s1.69,7.24,2.38,9.24a19.5,19.5,0,0,0,2.19,4.17l.38.59c.89,1.58,1.36,3.82.06,5.37a3.23,3.23,0,0,1-2.3,1.27,3.65,3.65,0,0,1-2.38-.71,10.66,10.66,0,0,1-.71,1.08,8.42,8.42,0,0,1-5.1,2.88,9.51,9.51,0,0,1-3.1.13c-6-1.14-10.11-7.8-10-16.2C126.65,175.19,130.6,170.94,136.85,170Zm-3.16,11.92c0,4.31,1.47,7.35,3.79,7.77,1.69.26,3.26-1.9,3.76-3.46h0a72.08,72.08,0,0,1-2.51-8.6c-.21,0-.43.06-.65.1a6.73,6.73,0,0,0-3.4,1.56A3.49,3.49,0,0,0,133.69,181.93Zm69.05,69.35a5.46,5.46,0,0,0-6.44,2.58l-16,27.54a5.84,5.84,0,0,0,.88,7.13,5.31,5.31,0,0,0,8.3-1.24l16.23-27.85A5.65,5.65,0,0,0,202.74,251.28ZM231.38,257a5.13,5.13,0,0,0-7-2.46A5.63,5.63,0,0,0,222,262l10.5,22a5.22,5.22,0,0,0,4.7,3,5.06,5.06,0,0,0,2.34-.58,5.62,5.62,0,0,0,2.35-7.38Zm-16.81-28.76a.57.57,0,0,0-.6-.84L49.79,258.83a11.94,11.94,0,0,1-13.95-9.46L13.3,131.49a11.94,11.94,0,0,1,9.47-13.94L162.11,90.9a2.09,2.09,0,0,0,1.72-2.17c-.07-.94.67-1.91,2.07-2.7,5.3-3.58,13.86-3.5,15.39-8.93v0a2.29,2.29,0,0,0-2.68-2.75L20.85,104.49a25.67,25.67,0,0,0-20.39,30L22.79,251.29a25.67,25.67,0,0,0,30,20.39l152-29.07a.53.53,0,0,0,.37-.26C208,237.46,211.65,233,214.57,228.28Zm-33.81-69.39h0c-1.52,1.83-2.58,7.43-.87,12.52.88,2.52,2.72,5.54,4.85,6.56a1.86,1.86,0,0,0,1.83.1s0,0,0,0c1.51,2.06,2.9,4.28,4.24,6.55a0,0,0,0,1,0,0,8.19,8.19,0,0,1-3.23,1.38,8.07,8.07,0,0,1-5.37-.84c-4.46-2.28-7.74-7.25-9-11.17-.12-.33-.21-.66-.31-1,.17,1.37.3,2.81.38,4.33.32,4.66-1.34,9.08-4.23,11.25a7.16,7.16,0,0,1-2.87,1.23,9.83,9.83,0,0,1-6.91-1.39c-5-3-8.24-10.17-8.73-19.12-.46-6.89,3.33-10.72,6.71-11.91h0c-1.5-1.14-3.12-2.32-3.8-2.73l-.1-.06-1.24-.84c-7.19-4.86-11.94-8.07-12.06-11.91a5.36,5.36,0,0,1,3.55-5.28l.3-.13c3-1.17,15.14-5,17.54-5.66a3.29,3.29,0,0,1,2.61.17,4,4,0,0,1,2,2.63,3.82,3.82,0,0,1-2.13,4.56c-2,.86-9.84,3.29-14.56,4.68,0,0,0,0,0,0,2,1.41,4.74,3.18,7.21,4.74a36.32,36.32,0,0,1,10.76,9.56,31,31,0,0,1,4.54,10.18s.05,0,.05,0c-.43-5.65.85-11.08,3.58-13.86l0,0c3.69-3.71,6.82-3.67,9.64-3.08,4,.78,7.65,4.45,9.17,7.65a31,31,0,0,1,1.61,4.29,0,0,0,0,1,0,0c-1.87,1.51-4.07,3.17-6,4.91a0,0,0,0,1,0,0,23.75,23.75,0,0,0-1.77-5.81,7.06,7.06,0,0,0-4-3.54A4,4,0,0,0,180.76,158.89Zm-14.4,18.81A33.37,33.37,0,0,0,162.82,164s0,0,0,0c-.79.08-1.45.21-2.17.34-1.48.29-3.18,1.09-3.09,4.81.14,5.76,2.14,10.71,5.09,12.61,1.37.89,2.16.43,2.31.32C165.71,181.48,166.47,179.78,166.36,177.7Zm237.1-64.48-143-36.69a.46.46,0,0,0-.54.27,10.28,10.28,0,0,1-1.54,2.53c-3.7,4.25-11.41.54-17.73,1.52h-.08a2.09,2.09,0,0,0-.29,4.1l160.37,41.15a11.92,11.92,0,0,1,8.58,14.5L379.39,256.86a11.93,11.93,0,0,1-14.5,8.58L225.31,229.63a.5.5,0,0,0-.38.06c-4.66,3.19-10,5.65-14.72,8.87a.47.47,0,0,0,.15.84l151.25,38.81a25.13,25.13,0,0,0,30.55-18.07l29.71-115.8A25.57,25.57,0,0,0,403.46,113.22ZM110.24,166.44h0c-1.5-1.14-3.12-2.32-3.81-2.72l-.09-.06-1.24-.84c-7.19-4.86-11.94-8.07-12.06-11.92a5.36,5.36,0,0,1,3.56-5.28l.29-.13c3-1.17,15.14-5,17.54-5.65a3.25,3.25,0,0,1,2.61.17,4,4,0,0,1,2,2.62,3.85,3.85,0,0,1-2.14,4.56c-2,.87-9.84,3.29-14.56,4.68,0,0,0,0,0,0,2,1.42,4.74,3.19,7.21,4.74a36.36,36.36,0,0,1,10.77,9.56c3.64,5.31,5.47,11.52,6,20.17.32,4.66-1.35,9.08-4.23,11.25a7.12,7.12,0,0,1-2.88,1.22,9.81,9.81,0,0,1-6.9-1.39c-5-3-8.24-10.17-8.73-19.12C103.06,171.45,106.85,167.62,110.24,166.44Zm.25,11.65c.14,5.76,2.14,10.71,5.09,12.61,1.36.89,2.16.42,2.31.32.78-.55,1.54-2.25,1.43-4.32A33.29,33.29,0,0,0,115.78,173l0,0c-.8.09-1.44.21-2.16.35C112.09,173.56,110.4,174.37,110.49,178.09ZM176.07,62.68a6,6,0,1,0,10.73-5.36l-12-24a6,6,0,1,0-10.73,5.36ZM83,123.26c-.94,18-14.39,33.48-32.73,37.68a6.6,6.6,0,0,0-5,7.67L51.09,199A6.59,6.59,0,0,0,58,204.38c18.76-1.13,35.91,10,41.7,27a6.6,6.6,0,0,0,7.49,4.36l104.3-20a2.38,2.38,0,0,0,.64-4.47,27.53,27.53,0,0,1-8.46-6.59,1.72,1.72,0,0,0-1.62-.56l-90.74,17.35a1.74,1.74,0,0,1-1.87-.94c-8.46-16.82-25.68-28-45-29.34a1.73,1.73,0,0,1-1.6-1.4l-3.13-16.37a1.73,1.73,0,0,1,1.1-1.94c18.1-6.89,31.4-22.62,34.72-41.18a1.72,1.72,0,0,1,1.37-1.41l95.37-18.23a3.19,3.19,0,0,0,2-5,11.7,11.7,0,0,0-.79-1A25.92,25.92,0,0,0,186.58,99a2.65,2.65,0,0,0-1.83-.3L88.36,117.13A6.58,6.58,0,0,0,83,123.26Z"/></g></g></svg>