<svg xmlns="http://www.w3.org/2000/svg" width="100%" height="100%" fill="#fff" viewBox="0 0 473.93 453.59"><defs></defs><g id="Слой_2" data-name="Слой 2"><g id="Слой_1-2" data-name="Слой 1"><path class="cls-1" d="M391.71,103.79l-23.39-23.4A7.86,7.86,0,0,0,358,79.73c-18.08,14-42.7,14.25-59.87.73a7.86,7.86,0,0,0-10.41.62L129.85,238.91a7.88,7.88,0,0,0-1.16,9.63c11.11,18.34,8.21,42.61-7,59a7.85,7.85,0,0,0,.19,10.9l26.09,26.09a7.86,7.86,0,0,0,10.35.67c17.73-13.67,42.05-14.2,59.15-1.3a7.86,7.86,0,0,0,10.29-.72L389.1,181.81a7.87,7.87,0,0,0,.9-10c-11.73-16.91-10.75-40.61,2.38-57.65A7.83,7.83,0,0,0,391.71,103.79ZM372.09,176.6,222.72,326a2.87,2.87,0,0,1-3.4.51C200,316,176,316.39,156.36,327.66a2.93,2.93,0,0,1-3.53-.44l-13.09-13.09a2.88,2.88,0,0,1-.36-3.65c12.8-18.66,15.32-42.54,6.53-62.75a2.94,2.94,0,0,1,.59-3.25l146.06-146a2.88,2.88,0,0,1,3.45-.49c19.53,11.13,43.89,10.87,64-.69a2.88,2.88,0,0,1,3.47.48l10.89,10.9a2.91,2.91,0,0,1,.5,3.52c-11,19.07-11.83,41.95-2.23,61A2.93,2.93,0,0,1,372.09,176.6ZM170.56,249.39l1.5-1.87Zm60.75,14.09c.1.27.2.56.28.86l.49-.49Zm15-35.38a28.73,28.73,0,0,0,2.88,3C248.24,230,247.28,229,246.3,228.1Zm0,0a28.73,28.73,0,0,0,2.88,3C248.24,230,247.28,229,246.3,228.1Zm21.17-20.38a25.16,25.16,0,0,0,3.48,3.83A30,30,0,0,0,267.47,207.72Zm3.48,3.83a25.16,25.16,0,0,1-3.48-3.83A30,30,0,0,1,271,211.55Zm202.9,155c-.59-4.79-4.09-9-10.41-12.38-.29-.15-.58-.32-.87-.49a14,14,0,0,0-3.37-1.56c-16.12-4.39-26.87-15.25-35.94-36.29-2.34-5.43-4.66-11-6.9-16.38-3-7.17-6.07-14.57-9.26-21.8-8-18-16.88-29.73-28.91-38l-.62-.43-2.14-1.48,85.83-85.83a28.5,28.5,0,0,0,7.42-12.46,30.09,30.09,0,0,0-7.59-29.64L360,8.76a29.89,29.89,0,0,0-42.28,0L223,103.54l-.52-.83-.41-.64c-7.81-12.36-19.17-21.74-36.83-30.42-7.09-3.49-14.36-6.87-21.39-10.14-5.3-2.46-10.77-5-16.11-7.56-20.65-9.91-31.06-21.09-34.8-37.38a13.7,13.7,0,0,0-1.42-3.43l-.46-.89c-3.16-6.45-7.18-10.12-11.94-10.9S89.55,2.7,84.66,7.65C73.4,19,68.24,32,69.33,46.28a5.36,5.36,0,0,1-.71,3.19c-8.46,7-10.88,16.51-7.2,28.41a71.41,71.41,0,0,0,5.38,12c.68,1.3,1.37,2.61,2,3.93-3.6,5.88-4.63,11.81-3.07,17.62C68.05,119.92,75.88,127.85,89,135c.47,18.81,10.92,27,38.45,30.26,3.28,9.64,10.76,13.39,18.71,15.1L54.24,272.27a28.5,28.5,0,0,0-7.42,12.46,30.09,30.09,0,0,0,7.59,29.64L155.47,415.42a29.89,29.89,0,0,0,42.28,0l99.88-99.88c1.75,6.76,5.44,12.87,13.63,16,2.11,27.64,9.9,38.41,28.68,39.65,6.57,13.43,14.18,21.57,22.61,24.2,5.75,1.79,11.71,1,17.73-2.35,1.3.71,2.58,1.45,3.85,2.19a71.64,71.64,0,0,0,11.72,5.86A33.67,33.67,0,0,0,407,403.21a22.69,22.69,0,0,0,17.54-8.13,5.43,5.43,0,0,1,3.23-.59c14.18,1.68,27.38-2.95,39.22-13.74C472.11,376.06,474.42,371.3,473.85,366.58ZM144.67,164.14l2.94-1.66a4.68,4.68,0,0,0-1.65-8.71l-1.78-.25c-3.83-.55-7.79-1.1-11.6-1.9a100.4,100.4,0,0,1-16.2-4.36c-3.27-1.3-6.89-2.94-8.91-6.15.83.11,1.66.24,2.48.37a42.56,42.56,0,0,0,6.62.68,17.69,17.69,0,0,0,5.26-.75,4.68,4.68,0,0,0,.27-8.84l-2.81-1.07a141,141,0,0,1-14.34-6,109.24,109.24,0,0,1-18.63-11.91c-1.84-1.49-4.62-4.58-2.88-8.71,2.83,1.33,5.64,2.93,8.36,4.48,7.83,4.46,15.92,9.09,25.78,8.21a4.69,4.69,0,0,0,1.92-8.72c-2-1.17-4.09-2.3-6.09-3.38A124.09,124.09,0,0,1,102.48,99a122.53,122.53,0,0,1-20.61-17.2,14.35,14.35,0,0,1-3.49-13.36l3.34,3.1c5.9,5.49,11.47,10.68,17.4,15.73,1.75,1.49,4.13,1.56,6.24,1.63a4.79,4.79,0,0,0,3.51-1.42,4.7,4.7,0,0,0,1.31-3.64c-.13-2.17-.28-4.62-1.63-6.58a36.24,36.24,0,0,0-6.73-6.82c-.7-.59-1.39-1.18-2.06-1.78C92.26,62,87.87,54.87,86.34,46.89c-1.9-9.89-2.58-21.16,6.87-29.66,2.59-2.34,3.6-2.15,3.7-2.13s1.06.37,2.14,3.63c5.87,17.74,16.54,31.25,31.7,40.16,12,7,24.63,13.29,36.86,19.34l3.06,1.5c18.55,9.18,33,18.47,42.76,33.35L156.56,170C151.93,168.86,147.69,167.46,144.67,164.14Zm42,240.18a14.37,14.37,0,0,1-15.32,3.2,12.45,12.45,0,0,1-4.49-2.95L65.27,303a12.45,12.45,0,0,1-2.95-4.49,14.37,14.37,0,0,1,3.2-15.32L328.86,19.86a14.2,14.2,0,0,1,20.06,0L450.19,121.13a13,13,0,0,1,3.32,5.51,14.62,14.62,0,0,1-.45,9.74A14.09,14.09,0,0,1,450,141Zm271.1-32.5c-8.88,9.09-20.11,8-29.92,5.65-7.9-1.85-14.84-6.53-21.21-14.29-.57-.69-1.13-1.41-1.69-2.13a36.75,36.75,0,0,0-6.55-7c-1.9-1.43-4.34-1.68-6.5-1.9h-.1a4.77,4.77,0,0,0-5.06,3.57,2.84,2.84,0,0,0-.1.76c0,2.18-.1,4.71,1.38,6.6,4.8,6.13,9.76,11.91,15,18l3,3.45a14.37,14.37,0,0,1-13.21-4,123,123,0,0,1-16.35-21.3,125.58,125.58,0,0,1-6-11.18c-1-2-2-4.15-3.13-6.22a4.68,4.68,0,0,0-5-2.42,4.63,4.63,0,0,0-3.8,4c-1.26,9.82,3,18.09,7.16,26.09,1.44,2.79,2.92,5.66,4.14,8.54-4.2,1.57-7.17-1.33-8.59-3.23a109.2,109.2,0,0,1-11.14-19.1,139.17,139.17,0,0,1-5.45-14.56l-1-2.86a4.66,4.66,0,0,0-4.43-3.19h0a4.6,4.6,0,0,0-4.39,3.1c-1.44,4.09-1,8-.55,11.87.1.82.2,1.66.27,2.49-3.12-2.15-4.62-5.83-5.78-9.15a100.35,100.35,0,0,1-3.7-16.36c-.64-3.82-1-7.79-1.42-11.62l-.19-1.84a4.68,4.68,0,0,0-8.63-2L313,314.43c-2.59-2.55-3.89-5.86-4.76-9.53L366,247.19c15,10.36,23.87,25.42,32.45,44.69l1.38,3.1c5.54,12.48,11.28,25.38,17.83,37.64,8.29,15.5,21.36,26.71,38.84,33.3,3.21,1.21,3.51,2.17,3.54,2.28S460.18,369.32,457.74,371.82ZM355.11,146.64a3.65,3.65,0,0,1-3.53.88A5.66,5.66,0,0,1,349,146c-2.18-2.17-5.24-4.82-8.31-7.44,11.25,20.27,8.92,22.88,7.64,24.32h0a4.06,4.06,0,0,1-3.09,1.48c-2.24,0-4.38-1.8-5.27-2.55l-4.45-3.49c-2.35-1.84-4.67-3.64-6.77-5.33l-2.09-1.65c-2.66-2.1-5.18-4.08-7-5.8a5,5,0,0,1-1.47-2.88,3.89,3.89,0,0,1,1.06-3.26c1.46-1.46,3.85-1.5,5.94-.09l.09.06c2,1.48,7,5.58,11.48,9.29-3.29-6.48-6.75-12.75-9.71-17.55-3-5.31-1.36-7.82-.12-8.84,2.07-1.59,5.45-1.74,16.49,7.5,5.6,4.68,11,10,11.48,10.55C357.49,143.64,355.91,145.84,355.11,146.64Zm-19.29,18.78a3.64,3.64,0,0,1-2.05,2.51,4.75,4.75,0,0,1-4-.07c-4.38-2-9.59-3.47-12.45-3.54.27.92.52,1.69.73,2.22a44.38,44.38,0,0,1,7.12,7.67,4.38,4.38,0,0,1-.55,6l-.2.15a3.73,3.73,0,0,1-2.09.63,5.08,5.08,0,0,1-3.94-2c-2.42-3.16-7.49-8.38-18-15.31a7.94,7.94,0,0,1-.8-.55c-1.9-1.5-2.57-3.6-1.75-5.49l.13-.26a4.07,4.07,0,0,1,5.38-1.51,25.16,25.16,0,0,1,3.94,2.39c-1.48-5.69-2.49-10.35-2.67-11.64a4,4,0,0,1,.93-3.31,3.62,3.62,0,0,1,2.95-1.25,5.2,5.2,0,0,1,4.35,3.72c.16.49.5,1.83.88,3.4s.78,3.37,1.09,4.81c.12.41.26,1,.47,2h0a18,18,0,0,1,3.1-.2c6.09.13,12.11,3,14.43,4.28l.12.07C334.75,161.16,336.29,163.23,335.82,165.42ZM212.65,276c-5.88-7.81-11.55-12.4-18.45-14.93-4.75-1.6-9.83-2.12-16.46-1.67-3.32.21-7,.42-9.83.44,3.72-4.5,9.88-12.09,11.27-14.23a4.37,4.37,0,0,0-.82-5.77,4.55,4.55,0,0,0-3.5-1.19,4,4,0,0,0-2.68,1.57c-1.91,2.24-11.41,14.06-13.6,17.19l-.2.31c-1.67,2.65-1.72,5.13-.14,7.37,2.55,3.59,9.2,3.39,19.28,3.07l1.73-.06h.14c.88-.09,3.08-.08,5.19,0-2.54,3.39-3.8,9.53.93,15.68,5.76,7.67,12.93,12.12,19.43,12.12.36,0,.72,0,1.08,0,3.59-.19,8-2.43,9.53-6.36S215.87,280.17,212.65,276Zm-20.45-3.71c.64-.64,1.22-1.21,2-1.86a35,35,0,0,1,11.94,10.45c1.38,1.84,1.67,3.94,1.26,5a2.76,2.76,0,0,1-2.59,1.37c-4,.21-9-3-12.7-8.31-2.37-3.38-1.27-5.24.11-6.62M316.05,185.7c-1.55,1.54-4.24,1.27-6.13-.63-2.18-2.17-5.24-4.82-8.31-7.44,11.25,20.28,8.92,22.89,7.64,24.33h0a4,4,0,0,1-3.08,1.47c-2.24,0-4.38-1.8-5.27-2.56l-4.48-3.5c-2.34-1.83-4.64-3.63-6.74-5.31l-2.11-1.66c-2.66-2.09-5.16-4.07-7-5.79a4.92,4.92,0,0,1-1.47-2.88,3.89,3.89,0,0,1,1.06-3.26c1.46-1.46,3.85-1.5,5.94-.09l.08.06c2.12,1.58,7.76,6.22,11.49,9.29-3.29-6.48-6.75-12.75-9.71-17.55-3-5.31-1.36-7.81-.12-8.84,2.07-1.59,5.45-1.74,16.49,7.5,5.61,4.69,11,10,11.48,10.56C318.42,182.7,316.85,184.9,316.05,185.7Zm-20.26,17.45c0,4.88-1.4,9.06-3.91,11.75a9.71,9.71,0,0,1-7.39,3.06,15.21,15.21,0,0,1-6.72-1.67,33.79,33.79,0,0,1-6.8-4.71l0,0a30,30,0,0,0-3.48-3.83h0a17.9,17.9,0,0,1-2-3.47c-1.8-4.11-2.1-8.05-.85-11.37,1.34-3.87,4.25-6.57,7.76-7.16s7.4.44,11.43,3.13a4.71,4.71,0,0,1,1.92,5.64l-.09.2a4,4,0,0,1-2.64,2.09,4.45,4.45,0,0,1-3.62-.76c-.74-.49-3.25-2.16-4.67-1.84a2.62,2.62,0,0,0-2.08,2.08,7,7,0,0,0,.48,5.13c1.32,2.7,4,5.14,8.07,7.44a3.92,3.92,0,0,0,3.58.46c1.61-.82,2.47-3.44,2.17-6.64a4.43,4.43,0,0,1,1.37-3.59,3.87,3.87,0,0,1,3.34-.93l.11,0A5.23,5.23,0,0,1,295.79,203.15ZM271,211.58l0,0a25.16,25.16,0,0,1-3.48-3.83h0a33.3,33.3,0,0,0-6-4.45c-3.49-2-9.33-3-13.73-1-3.08,1.35-6.11,3.41-7.39,9.32v0c-1,4.78,1.5,11.27,6,16.49,1,.91,1.94,1.9,2.88,3l0,0c.55.48,1.12,1,1.71,1.39a23.12,23.12,0,0,0,13.31,4.59,15.62,15.62,0,0,0,2.47-.18A10.09,10.09,0,0,0,274.9,230C277,223.25,274.92,216.8,271,211.58Zm-4.35,15a2.51,2.51,0,0,1-2.22,1.78c-2.69.48-6.34-1.09-8.75-2.84-4.79-3.58-7.22-9.51-6.87-12.24a5.19,5.19,0,0,1,2.78-3.25,7.88,7.88,0,0,1,6.11.54C258.9,211.34,269.62,218,266.62,226.63Zm-13.64,9c-1.25-1.66-2.49-3.18-3.76-4.56l0,0a28.73,28.73,0,0,1-2.88-3,34.23,34.23,0,0,0-11.77-7.36c-4.76-1.61-9.84-2.12-16.46-1.68-3.32.22-7,.43-9.84.44,3.73-4.49,9.89-12.08,11.28-14.23a4.38,4.38,0,0,0-.83-5.77,4.52,4.52,0,0,0-3.49-1.18,3.88,3.88,0,0,0-2.68,1.56c-1.91,2.24-11.41,14.06-13.61,17.19l-.19.31c-1.67,2.65-1.72,5.13-.14,7.37,2.55,3.59,9.2,3.39,19.26,3.07l1.75,0h.14c.88-.08,3.08-.08,5.19,0-2.54,3.4-3.81,9.53.93,15.68,5.75,7.67,12.93,12.12,19.42,12.12.37,0,.73,0,1.09,0,3.59-.19,8-2.42,9.52-6.36S256.2,239.84,253,235.66Zm-5.28,9.86c-.08.22-.61,1.28-2.58,1.38-4,.21-9-3.05-12.7-8.31-2.37-3.38-1.28-5.25.1-6.63.65-.64,1.22-1.22,2-1.86a35,35,0,0,1,11.94,10.44C247.82,242.38,248.12,244.48,247.7,245.52Zm-11.16,15.27-.73-.3a21.19,21.19,0,0,1-4.71-2.4c-1.91-1.41-5-4.28-8.06-7s-5.8-5.33-7.51-6.58a11.13,11.13,0,0,0-12.38-1c-4,2.28-8,7.4-6,14.35a5.38,5.38,0,0,0,4.88,3.78h.15a3.63,3.63,0,0,0,2.74-1.5,4.74,4.74,0,0,0,.75-3.95c-.85-3.23.94-4.59,1.69-5a3.48,3.48,0,0,1,3-.14l.12.08c.32.22,1.25,1.06,2.39,2.15-5.65,5.12-6.84,11.68-3,17.58,3.91,6.09,9.57,9.57,15,9.57a11.86,11.86,0,0,0,4.95-1.07c1.41-.69,5.54-3.66,6-8.26a11.94,11.94,0,0,0,0-1.63,4.34,4.34,0,0,0,2.83-.9A3.85,3.85,0,0,0,240,265.9C240.35,263.51,238.44,261.7,236.54,260.79Zm-11,10.64c-2.55,1.19-5.78-.58-8.45-4.63-2-3,.59-6,2.38-7.53a74.53,74.53,0,0,0,7.72,6.31C227.71,267.42,227.49,270.5,225.58,271.43ZM43.5,221.59a6.5,6.5,0,0,1-4.6-11.1L70.4,179a6.51,6.51,0,0,1,9.2,9.2l-31.5,31.5A6.49,6.49,0,0,1,43.5,221.59Zm-37-30a6.5,6.5,0,0,1-4.6-11.1L36.4,146a6.51,6.51,0,0,1,9.2,9.2l-34.5,34.5A6.49,6.49,0,0,1,6.5,191.59Zm299,262a6.5,6.5,0,0,1-4.6-11.1L332.4,411a6.51,6.51,0,0,1,9.2,9.2l-31.5,31.5A6.49,6.49,0,0,1,305.5,453.59Zm-37-30a6.5,6.5,0,0,1-4.6-11.1L298.4,378a6.51,6.51,0,0,1,9.2,9.2l-34.5,34.5A6.49,6.49,0,0,1,268.5,423.59Z"/></g></g></svg>