<svg width="42" height="46" viewBox="0 0 42 46" fill="none" xmlns="http://www.w3.org/2000/svg">
<path id="Shape" fill-rule="evenodd" clip-rule="evenodd" d="M18.3723 33.4143C19.1901 34.3547 20.5529 34.4501 21.6432 33.6269C22.4609 32.8038 22.7335 31.3755 21.9158 30.4351L17.2821 25.1364H39.3603C40.4506 25.1364 41.5409 24.1251 41.5409 22.874C41.5409 21.6257 40.4506 20.6117 39.3603 20.6117H17.2821L21.9158 15.3156C22.7335 14.3753 22.4609 12.9443 21.6432 12.1238C20.5529 11.3007 19.1901 11.3961 18.3723 12.3364L10.4678 21.3858C9.65008 22.2389 9.65008 23.5118 10.4678 24.365L18.3723 33.4143ZM12.1022 4.77538C13.465 4.77538 14.5553 3.76414 14.5553 2.51304C14.5553 1.26467 13.465 0.250702 12.1022 0.250702H5.28789C2.83475 0.250702 0.926758 2.2759 0.926758 4.77538V40.9755C0.926758 43.4723 2.83475 45.5002 5.28789 45.5002H12.1022C13.465 45.5002 14.5553 44.4862 14.5553 43.2379C14.5553 41.9868 13.465 40.9755 12.1022 40.9755H5.28789V4.77538H12.1022Z" fill="black"/>
</svg>
